<?xml version="1.0"?>
<svg xmlns="http://www.w3.org/2000/svg" xmlns:xlink="http://www.w3.org/1999/xlink" xmlns:svgjs="http://svgjs.com/svgjs" version="1.1" width="512" height="512" x="0" y="0" viewBox="0 0 512 512" style="enable-background:new 0 0 512 512" xml:space="preserve" class=""><g><g xmlns="http://www.w3.org/2000/svg"><g id="XMLID_500_"><g><g id="XMLID_980_"><g id="XMLID_981_"><g id="XMLID_982_"><g id="XMLID_983_"><g id="XMLID_984_"><g id="XMLID_986_"><g id="XMLID_989_"><g id="XMLID_1008_"><g id="XMLID_1009_"><g id="XMLID_1010_"><g id="XMLID_1011_"><g id="XMLID_1012_"><g id="XMLID_1013_"><g id="XMLID_1014_"><circle cx="256" cy="256" fill="#ff4fca" r="256" data-original="#436375" style="" class=""/></g></g></g></g></g></g></g></g></g></g></g></g></g></g></g></g><path d="m512 256c0-.984-.026-1.962-.037-2.944l-181.244-181.244s-90.459-1.812-110.089 32.188-75.385 328.03-75.385 328.03l77.875 77.875c10.766 1.38 21.739 2.095 32.88 2.095 141.385 0 256-114.615 256-256z" fill="#d137a4" data-original="#274a59" style="" class=""/><g><g><g><g><path d="m357.72 220.22h-60.839v-78.618c0-23.732-19.307-43.039-43.039-43.039s-43.039 19.307-43.039 43.039v78.611h-60.839v-78.611c0-57.278 46.6-103.878 103.878-103.878s103.878 46.6 103.878 103.878z" fill="#ffffff" data-original="#ffffff" style="" class=""/></g><g><g><g><g><path d="m357.72 141.6v78.62h-60.84v-78.62c0-23.01-18.15-41.86-40.88-42.98v-60.88c56.29 1.16 101.72 47.3 101.72 103.86z" fill="#e9edf5" data-original="#e9edf5" style="" class=""/></g></g></g></g><g><path d="m299.812 457.81h-87.624c-55.124 0-99.81-44.686-99.81-99.81v-143.683h287.244v143.683c0 55.124-44.687 99.81-99.81 99.81z" fill="#ffee56" data-original="#ffaa20" style="" class=""/></g><g><path d="m399.62 214.32v143.68c0 55.12-44.68 99.81-99.81 99.81h-43.81v-243.49z" fill="#ffc63f" data-original="#ff8900" style="" class=""/></g></g></g><path d="m291.37 310.915c0-19.534-15.836-35.37-35.37-35.37s-35.37 15.836-35.37 35.37c0 10.634 4.7 20.165 12.128 26.649l-9.258 59.018h65l-9.258-59.018c7.428-6.484 12.128-16.015 12.128-26.649z" fill="#9e653e" data-original="#9e653e" style="" class=""/><path d="m279.24 337.56 9.26 59.02h-32.5v-121.03c19.53 0 35.37 15.83 35.37 35.37 0 10.63-4.7 20.16-12.13 26.64z" fill="#835637" data-original="#835637" style="" class=""/></g></g></g></svg>
